#Comment line ignore any data following # character 
#Hierarchical Translation and Rotation (.htr) file 
[Header]	
#Header keywords are followed by a single value 
FileType HTR		#Single word string
DataType HTRS		#Translation followed by rotation and scale data
FileVersion 1		#integer
NumSegments 84		#integer
NumFrames 2		#integer
DataFrameRate 30		#integer, data frame rate in this file
EulerRotationOrder ZYX
CalibrationUnits mm
RotationUnits Degrees
GlobalAxisofGravity Y
BoneLengthAxis Y
ScaleFactor 1.00
[SegmentNames&Hierarchy]
#CHILD	PARENT
MASTER GLOBAL
root MASTER
chest root
L_mid_tent01 root
R_mid_tent01 root
spine01 root
Bip01_Neck chest
L_humerus chest
R_humerus chest
weapon_bone chest
Bip01_Head Bip01_Neck
eye_left_bone Bip01_Head
eye_right_bone Bip01_Head
L_forearm L_humerus
L_front_hand L_forearm
L_weapon_bone L_forearm
L_front_hand01_01 L_front_hand
L_front_hand02_01 L_front_hand
L_front_hand03_01 L_front_hand
L_front_hand01_02 L_front_hand01_01
L_front_hand02_02 L_front_hand02_01
L_front_hand03_02 L_front_hand03_01
R_forearm R_humerus
R_front_hand R_forearm
R_weapon_bone R_forearm
R_front_hand01_01 R_front_hand
R_front_hand02_01 R_front_hand
R_front_hand03_01 R_front_hand
R_front_hand01_02 R_front_hand01_01
R_front_hand02_02 R_front_hand02_01
R_front_hand03_02 R_front_hand03_01
null_rope01_connect L_mid_tent01
Rope1_Seg01 null_rope01_connect
Rope1_Seg02 Rope1_Seg01
Rope1_Seg03 Rope1_Seg02
Rope1_Seg04 Rope1_Seg03
Rope1_Seg05 Rope1_Seg04
Rope1_Seg06 Rope1_Seg05
Rope1_Seg07 Rope1_Seg06
Rope1_Seg09 Rope1_Seg07
L_mid_hand01 Rope1_Seg09
L_mid_hand02 Rope1_Seg09
L_mid_hand03 Rope1_Seg09
null_rope02_connect R_mid_tent01
Rope2_Seg01 null_rope02_connect
Rope2_Seg02 Rope2_Seg01
Rope2_Seg03 Rope2_Seg02
Rope2_Seg04 Rope2_Seg03
Rope2_Seg05 Rope2_Seg04
Rope2_Seg06 Rope2_Seg05
Rope2_Seg07 Rope2_Seg06
Rope2_Seg09 Rope2_Seg07
R_mid_hand01 Rope2_Seg09
R_mid_hand02 Rope2_Seg09
R_mid_hand03 Rope2_Seg09
spine02 spine01
spine03 spine02
pelvis spine03
null_rope03_connect pelvis
null_rope04_connect pelvis
Rope3_Seg01 null_rope03_connect
Rope3_Seg02 Rope3_Seg01
Rope3_Seg03 Rope3_Seg02
Rope3_Seg04 Rope3_Seg03
Rope3_Seg05 Rope3_Seg04
Rope3_Seg06 Rope3_Seg05
Rope3_Seg07 Rope3_Seg06
Rope3_Seg08 Rope3_Seg07
Rope3_Seg09 Rope3_Seg08
R_rear_hand01 Rope3_Seg09
R_rear_hand02 Rope3_Seg09
R_rear_hand03 Rope3_Seg09
Rope4_Seg01 null_rope04_connect
Rope4_Seg02 Rope4_Seg01
Rope4_Seg03 Rope4_Seg02
Rope4_Seg04 Rope4_Seg03
Rope4_Seg05 Rope4_Seg04
Rope4_Seg06 Rope4_Seg05
Rope4_Seg07 Rope4_Seg06
Rope4_Seg08 Rope4_Seg07
Rope4_Seg09 Rope4_Seg08
L_rear_hand01 Rope4_Seg09
L_rear_hand02 Rope4_Seg09
L_rear_hand03 Rope4_Seg09
[BasePosition]
#SegmentName Tx, Ty, Tz, Rx, Ry, Rz, BoneLength
MASTER 0.000000 0.000000 0.000000 -90.000000 0.000000 0.000000 10.000000 
root 0.000000 0.000000 0.000000 0.000000 0.000000 0.000000 10.000000 
chest 0.000000 0.000000 0.000000 0.000000 0.000000 0.000000 10.000000 
L_mid_tent01 0.000000 0.000000 0.000000 0.000000 0.000000 0.000000 10.000000 
R_mid_tent01 0.000000 0.000000 0.000000 0.000000 0.000000 0.000000 10.000000 
spine01 0.000000 0.000000 0.000000 0.000000 0.000000 0.000000 10.000000 
Bip01_Neck 0.000000 0.000000 0.000000 0.000000 0.000000 0.000000 10.000000 
L_humerus 0.000000 0.000000 0.000000 0.000000 0.000000 0.000000 10.000000 
R_humerus 0.000000 0.000000 0.000000 0.000000 0.000000 0.000000 10.000000 
weapon_bone 0.000000 0.000000 0.000000 0.000000 0.000000 0.000000 10.000000 
Bip01_Head 0.000000 0.000000 0.000000 0.000000 0.000000 0.000000 10.000000 
eye_left_bone 0.000000 0.000000 0.000000 0.000000 0.000000 0.000000 10.000000 
eye_right_bone 0.000000 0.000000 0.000000 0.000000 0.000000 0.000000 10.000000 
L_forearm 0.000000 0.000000 0.000000 0.000000 0.000000 0.000000 10.000000 
L_front_hand 0.000000 0.000000 0.000000 0.000000 0.000000 0.000000 10.000000 
L_weapon_bone 0.000000 0.000000 0.000000 0.000000 0.000000 0.000000 10.000000 
L_front_hand01_01 0.000000 0.000000 0.000000 0.000000 0.000000 0.000000 10.000000 
L_front_hand02_01 0.000000 0.000000 0.000000 0.000000 0.000000 0.000000 10.000000 
L_front_hand03_01 0.000000 0.000000 0.000000 0.000000 0.000000 0.000000 10.000000 
L_front_hand01_02 0.000000 0.000000 0.000000 0.000000 0.000000 0.000000 10.000000 
L_front_hand02_02 0.000000 0.000000 0.000000 0.000000 0.000000 0.000000 10.000000 
L_front_hand03_02 0.000000 0.000000 0.000000 0.000000 0.000000 0.000000 10.000000 
R_forearm 0.000000 0.000000 0.000000 0.000000 0.000000 0.000000 10.000000 
R_front_hand 0.000000 0.000000 0.000000 0.000000 0.000000 0.000000 10.000000 
R_weapon_bone 0.000000 0.000000 0.000000 0.000000 0.000000 0.000000 10.000000 
R_front_hand01_01 0.000000 0.000000 0.000000 0.000000 0.000000 0.000000 10.000000 
R_front_hand02_01 0.000000 0.000000 0.000000 0.000000 0.000000 0.000000 10.000000 
R_front_hand03_01 0.000000 0.000000 0.000000 0.000000 0.000000 0.000000 10.000000 
R_front_hand01_02 0.000000 0.000000 0.000000 0.000000 0.000000 0.000000 10.000000 
R_front_hand02_02 0.000000 0.000000 0.000000 0.000000 0.000000 0.000000 10.000000 
R_front_hand03_02 0.000000 0.000000 0.000000 0.000000 0.000000 0.000000 10.000000 
null_rope01_connect 0.000000 0.000000 0.000000 0.000000 0.000000 0.000000 10.000000 
Rope1_Seg01 0.000000 0.000000 0.000000 0.000000 0.000000 0.000000 10.000000 
Rope1_Seg02 0.000000 0.000000 0.000000 0.000000 0.000000 0.000000 10.000000 
Rope1_Seg03 0.000000 0.000000 0.000000 0.000000 0.000000 0.000000 10.000000 
Rope1_Seg04 0.000000 0.000000 0.000000 0.000000 0.000000 0.000000 10.000000 
Rope1_Seg05 0.000000 0.000000 0.000000 0.000000 0.000000 0.000000 10.000000 
Rope1_Seg06 0.000000 0.000000 0.000000 0.000000 0.000000 0.000000 10.000000 
Rope1_Seg07 0.000000 0.000000 0.000000 0.000000 0.000000 0.000000 10.000000 
Rope1_Seg09 0.000000 0.000000 0.000000 0.000000 0.000000 0.000000 10.000000 
L_mid_hand01 0.000000 0.000000 0.000000 0.000000 0.000000 0.000000 10.000000 
L_mid_hand02 0.000000 0.000000 0.000000 0.000000 0.000000 0.000000 10.000000 
L_mid_hand03 0.000000 0.000000 0.000000 0.000000 0.000000 0.000000 10.000000 
null_rope02_connect 0.000000 0.000000 0.000000 0.000000 0.000000 0.000000 10.000000 
Rope2_Seg01 0.000000 0.000000 0.000000 0.000000 0.000000 0.000000 10.000000 
Rope2_Seg02 0.000000 0.000000 0.000000 0.000000 0.000000 0.000000 10.000000 
Rope2_Seg03 0.000000 0.000000 0.000000 0.000000 0.000000 0.000000 10.000000 
Rope2_Seg04 0.000000 0.000000 0.000000 0.000000 0.000000 0.000000 10.000000 
Rope2_Seg05 0.000000 0.000000 0.000000 0.000000 0.000000 0.000000 10.000000 
Rope2_Seg06 0.000000 0.000000 0.000000 0.000000 0.000000 0.000000 10.000000 
Rope2_Seg07 0.000000 0.000000 0.000000 0.000000 0.000000 0.000000 10.000000 
Rope2_Seg09 0.000000 0.000000 0.000000 0.000000 0.000000 0.000000 10.000000 
R_mid_hand01 0.000000 0.000000 0.000000 0.000000 0.000000 0.000000 10.000000 
R_mid_hand02 0.000000 0.000000 0.000000 0.000000 0.000000 0.000000 10.000000 
R_mid_hand03 0.000000 0.000000 0.000000 0.000000 0.000000 0.000000 10.000000 
spine02 0.000000 0.000000 0.000000 0.000000 0.000000 0.000000 10.000000 
spine03 0.000000 0.000000 0.000000 0.000000 0.000000 0.000000 10.000000 
pelvis 0.000000 0.000000 0.000000 0.000000 0.000000 0.000000 10.000000 
null_rope03_connect 0.000000 0.000000 0.000000 0.000000 0.000000 0.000000 10.000000 
null_rope04_connect 0.000000 0.000000 0.000000 0.000000 0.000000 0.000000 10.000000 
Rope3_Seg01 0.000000 0.000000 0.000000 0.000000 0.000000 0.000000 10.000000 
Rope3_Seg02 0.000000 0.000000 0.000000 0.000000 0.000000 0.000000 10.000000 
Rope3_Seg03 0.000000 0.000000 0.000000 0.000000 0.000000 0.000000 10.000000 
Rope3_Seg04 0.000000 0.000000 0.000000 0.000000 0.000000 0.000000 10.000000 
Rope3_Seg05 0.000000 0.000000 0.000000 0.000000 0.000000 0.000000 10.000000 
Rope3_Seg06 0.000000 0.000000 0.000000 0.000000 0.000000 0.000000 10.000000 
Rope3_Seg07 0.000000 0.000000 0.000000 0.000000 0.000000 0.000000 10.000000 
Rope3_Seg08 0.000000 0.000000 0.000000 0.000000 0.000000 0.000000 10.000000 
Rope3_Seg09 0.000000 0.000000 0.000000 0.000000 0.000000 0.000000 10.000000 
R_rear_hand01 0.000000 0.000000 0.000000 0.000000 0.000000 0.000000 10.000000 
R_rear_hand02 0.000000 0.000000 0.000000 0.000000 0.000000 0.000000 10.000000 
R_rear_hand03 0.000000 0.000000 0.000000 0.000000 0.000000 0.000000 10.000000 
Rope4_Seg01 0.000000 0.000000 0.000000 0.000000 0.000000 0.000000 10.000000 
Rope4_Seg02 0.000000 0.000000 0.000000 0.000000 0.000000 0.000000 10.000000 
Rope4_Seg03 0.000000 0.000000 0.000000 0.000000 0.000000 0.000000 10.000000 
Rope4_Seg04 0.000000 0.000000 0.000000 0.000000 0.000000 0.000000 10.000000 
Rope4_Seg05 0.000000 0.000000 0.000000 0.000000 0.000000 0.000000 10.000000 
Rope4_Seg06 0.000000 0.000000 0.000000 0.000000 0.000000 0.000000 10.000000 
Rope4_Seg07 0.000000 0.000000 0.000000 0.000000 0.000000 0.000000 10.000000 
Rope4_Seg08 0.000000 0.000000 0.000000 0.000000 0.000000 0.000000 10.000000 
Rope4_Seg09 0.000000 0.000000 0.000000 0.000000 0.000000 0.000000 10.000000 
L_rear_hand01 0.000000 0.000000 0.000000 0.000000 0.000000 0.000000 10.000000 
L_rear_hand02 0.000000 0.000000 0.000000 0.000000 0.000000 0.000000 10.000000 
L_rear_hand03 0.000000 0.000000 0.000000 0.000000 0.000000 0.000000 10.000000 
#Beginning of Data. Separated by tabs
#Fr	Tx	Ty	Tz	Rx	Ry	Rz	SF
[MASTER]
3 0.000000 0.000000 0.000000 0.001660 0.001660 0.001660 0.000000
4 0.000000 0.000000 0.000000 0.001660 0.001660 0.001660 0.000000
[root]
3 -16.920000 2.615128 1450.182251 -91.223854 -11.640121 -89.759636 1450.283203
4 -17.420500 -1.287280 1452.342407 -90.656372 -11.709724 -90.083138 1452.447510
[chest]
3 -84.512650 -34.090519 0.000000 -2.035197 0.198593 173.709641 91.129311
4 -84.512650 -34.090519 0.000000 -1.918821 0.393737 178.206024 91.129311
[L_mid_tent01]
3 27.299110 22.179159 -249.918701 -11.023826 13.867270 38.295528 252.381683
4 27.299114 22.179167 -249.918701 -5.959845 13.151569 51.420887 252.381683
[R_mid_tent01]
3 23.228794 24.509907 226.238495 -177.167496 -17.416542 43.882675 228.744751
4 23.228794 24.509907 226.238495 176.956345 -15.639021 53.896290 228.744751
[spine01]
3 -0.361383 -0.195265 0.000000 -0.000001 -0.000007 22.052340 0.410763
4 -0.361383 -0.195265 0.000000 -0.000001 -0.000007 22.052340 0.410763
[Bip01_Neck]
3 165.484543 71.581718 0.000119 176.643677 -1.657967 43.431911 180.302734
4 165.484543 71.581718 0.000119 176.643677 -1.657967 43.431911 180.302734
[L_humerus]
3 -13.983130 -135.272980 -120.471481 149.874374 46.168224 -153.469788 181.680161
4 -13.983130 -135.272980 -120.471481 169.728394 11.195955 -156.951385 181.680161
[R_humerus]
3 -13.983309 -135.273102 125.287651 -156.234070 -48.504795 -142.578568 184.909012
4 -13.983309 -135.273102 125.287651 -171.976288 -12.687490 -150.976273 184.909012
[weapon_bone]
3 235.964890 -300.705902 0.000000 0.000000 -89.951546 -128.212341 382.234833
4 235.964890 -300.705902 0.000000 0.000000 -89.951546 -128.212341 382.234833
[Bip01_Head]
3 213.438568 185.731354 11.571860 4.965356 3.801409 -43.882862 283.171448
4 213.435745 185.739288 11.469325 4.968390 5.247288 -43.853752 283.170349
[eye_left_bone]
3 -24.626970 125.451866 -64.772606 0.000000 -90.000000 -99.840431 143.318359
4 -24.626970 125.451866 -64.772606 0.000000 -90.000000 -99.840431 143.318359
[eye_right_bone]
3 -24.626970 125.451866 64.327362 0.000000 -89.965736 80.156380 143.117676
4 -24.626970 125.451866 64.327362 0.000000 -89.972023 80.156387 143.117676
[L_forearm]
3 322.776093 0.000000 -0.000119 0.000396 -0.002314 -109.419968 322.776093
4 322.776093 0.000000 -0.000119 0.000396 -0.002314 -109.419975 322.776093
[L_front_hand]
3 241.149185 -0.042021 -3.300071 -178.667953 -1.835447 -27.422350 241.171753
4 241.149185 -0.042021 -3.300071 -178.667953 -1.835447 -27.422342 241.171753
[L_weapon_bone]
3 156.183838 0.000000 0.000000 0.000014 0.000007 0.000001 156.183838
4 156.183838 0.000000 0.000000 0.000014 0.000007 0.000001 156.183838
[L_front_hand01_01]
3 86.095154 20.947098 -0.655860 -0.366594 -0.477154 75.385574 88.609184
4 86.095154 20.947098 -0.655860 -0.365371 -0.478091 75.092094 88.609184
[L_front_hand02_01]
3 86.935165 -11.437475 24.513514 154.399796 -59.883835 -61.369587 91.046425
4 86.935165 -11.437475 24.513514 153.946487 -59.758568 -60.843468 91.046425
[L_front_hand03_01]
3 86.637497 -14.123976 -20.424902 -153.913849 58.118122 -62.702866 90.126129
4 86.637497 -14.123976 -20.424902 -153.504349 57.989803 -62.217342 90.126129
[L_front_hand01_02]
3 71.020905 -0.000179 0.000030 0.000320 -0.002325 -105.686226 71.020905
4 71.020905 -0.000179 0.000030 0.000320 -0.002325 -105.648979 71.020905
[L_front_hand02_02]
3 71.020927 -0.000119 0.000060 0.000320 -0.002325 -105.686226 71.020927
4 71.020927 -0.000119 0.000060 0.000320 -0.002325 -105.648979 71.020927
[L_front_hand03_02]
3 71.020905 -0.000060 0.000060 0.000320 -0.002325 -105.686226 71.020905
4 71.020905 -0.000060 0.000060 0.000320 -0.002325 -105.648979 71.020905
[R_forearm]
3 322.776428 -0.000060 0.000030 0.202103 0.065158 -108.062805 322.776428
4 322.776428 -0.000060 0.000030 0.202103 0.065158 -108.062805 322.776428
[R_front_hand]
3 238.847015 -0.006795 2.210259 -2.635298 -10.645461 -26.312506 238.857239
4 238.847015 -0.006795 2.210259 -2.635298 -10.645461 -26.312506 238.857239
[R_weapon_bone]
3 155.664093 0.002503 -0.000030 0.003487 0.001180 -90.988930 155.664078
4 155.664093 0.002503 -0.000030 0.003487 0.001180 -90.988930 155.664078
[R_front_hand01_01]
3 87.624611 14.231146 22.918642 -154.633499 -59.950619 61.746044 91.683487
4 87.624611 14.231146 22.918642 -154.238968 -59.839840 61.284889 91.683487
[R_front_hand02_01]
3 89.356956 14.367283 -19.491137 154.602661 58.302849 63.744389 92.579636
4 89.356956 14.367283 -19.491137 154.231567 58.196690 63.311184 92.579636
[R_front_hand03_01]
3 87.286232 -22.307278 -0.143439 0.162155 -0.423168 -75.767921 90.091743
4 87.286232 -22.307278 -0.143439 0.161230 -0.423521 -75.517479 90.091743
[R_front_hand01_02]
3 71.020905 0.000060 0.000119 0.002323 -0.000334 106.381714 71.020905
4 71.020905 0.000060 0.000119 0.002323 -0.000334 106.381714 71.020905
[R_front_hand02_02]
3 71.020844 -0.000030 -0.000119 0.002323 -0.000334 106.381714 71.020836
4 71.020844 -0.000030 -0.000119 0.002323 -0.000334 106.381714 71.020836
[R_front_hand03_02]
3 71.020905 0.000000 0.000030 0.002323 -0.000334 106.381714 71.020905
4 71.020905 0.000000 0.000030 0.002323 -0.000334 106.381714 71.020905
[null_rope01_connect]
3 328.732483 0.000000 -0.000238 -157.192932 -71.253220 -140.731598 328.732483
4 328.732483 0.000000 -0.000238 -154.674744 -74.913445 -155.713760 328.732483
[Rope1_Seg01]
3 0.000000 0.000000 0.000000 -110.057671 43.868141 -111.889832 0.000000
4 0.000000 0.000000 0.000000 -105.421822 51.843826 -106.265549 0.000000
[Rope1_Seg02]
3 139.999863 -0.000179 0.000000 9.247013 2.260632 -6.235736 139.999863
4 139.999863 -0.000179 0.000000 0.169216 3.030601 -3.581322 139.999863
[Rope1_Seg03]
3 139.999924 0.000060 -0.000060 34.343597 1.460949 -8.922094 139.999924
4 139.999924 0.000060 -0.000060 0.412786 3.889960 -4.662002 139.999924
[Rope1_Seg04]
3 139.999924 -0.000060 -0.000119 74.929222 -8.048582 -13.122703 139.999924
4 139.999924 -0.000060 -0.000119 16.007771 3.729984 -8.582644 139.999924
[Rope1_Seg05]
3 139.999832 0.000119 -0.000060 23.137392 -5.553262 -4.143349 139.999832
4 139.999832 0.000119 -0.000060 48.521595 6.356529 -7.579210 139.999832
[Rope1_Seg06]
3 139.999954 0.000119 -0.000060 19.649406 -1.170740 -6.111691 139.999954
4 139.999954 0.000119 -0.000060 176.573166 6.557832 -8.190297 139.999954
[Rope1_Seg07]
3 139.999985 0.000060 0.000000 9.925492 -2.476027 -1.256125 139.999985
4 139.999985 0.000060 0.000000 -4.548273 -3.213172 5.528455 139.999985
[Rope1_Seg09]
3 121.602913 0.000119 -0.000089 -89.793175 -1.359789 0.847147 121.602913
4 121.602913 0.000119 -0.000089 -89.793175 -1.359789 0.847147 121.602913
[L_mid_hand01]
3 103.859421 1.038730 8.195221 124.165955 -63.799015 -31.873352 104.187431
4 103.859421 1.038730 8.195221 119.391953 -59.659550 -26.459229 104.187431
[L_mid_hand02]
3 105.572853 -4.139662 -10.864139 -164.626358 42.318848 -67.191460 106.211075
4 105.572853 -4.139662 -10.864139 -160.502609 40.861904 -60.979630 106.211075
[L_mid_hand03]
3 104.641464 17.579376 -3.913581 -7.501869 17.251593 69.949562 106.179977
4 104.641464 17.579376 -3.913581 -8.971709 16.553080 64.913109 106.179977
[null_rope02_connect]
3 328.732849 0.000179 -0.000119 -128.691193 73.140327 -5.876451 328.732849
4 328.732849 0.000179 -0.000119 -119.423767 74.587059 12.402186 328.732849
[Rope2_Seg01]
3 0.000095 0.000153 0.000008 154.510162 35.867081 -61.665939 0.000180
4 0.000095 0.000153 0.000013 152.763687 46.605274 -72.396194 0.000180
[Rope2_Seg02]
3 139.999741 -0.000060 -0.000119 -8.312816 8.552134 -1.257454 139.999756
4 139.999741 -0.000060 -0.000119 6.054579 7.931633 -7.467985 139.999756
[Rope2_Seg03]
3 140.000107 0.000030 0.000000 -17.215853 7.995456 -0.769343 140.000107
4 140.000107 0.000030 0.000000 13.635173 6.742548 -8.191499 140.000107
[Rope2_Seg04]
3 139.999802 0.000000 -0.000060 -43.459244 5.755933 1.608213 139.999802
4 139.999802 0.000000 -0.000060 32.468727 4.060348 -9.411876 139.999802
[Rope2_Seg05]
3 139.999985 -0.000060 0.000119 -6.951229 -2.252446 2.135753 139.999985
4 139.999985 -0.000060 0.000119 22.300337 0.192794 -4.780776 139.999985
[Rope2_Seg06]
3 139.999893 -0.000030 -0.000119 1.087625 -2.678491 0.950853 139.999893
4 139.999893 -0.000030 -0.000119 6.399916 1.075763 -1.667072 139.999893
[Rope2_Seg07]
3 139.999893 0.000060 -0.000060 -2.464161 -1.225217 1.151025 139.999893
4 139.999893 0.000060 -0.000060 12.417478 -0.027945 -2.105858 139.999893
[Rope2_Seg09]
3 121.338966 0.000089 -0.000060 33.793236 -1.359788 -0.847141 121.338966
4 121.338966 0.000089 -0.000060 33.793236 -1.359788 -0.847141 121.338966
[R_mid_hand01]
3 104.680779 11.144459 -10.335981 -18.237753 44.607113 67.592667 105.778534
4 104.680779 11.144459 -10.335981 -20.399712 43.830379 64.493820 105.778534
[R_mid_hand02]
3 104.070427 2.443552 8.231699 52.237907 -66.108360 35.844143 104.424065
4 104.070427 2.443552 8.231699 55.242668 -64.206009 32.532043 104.424065
[R_mid_hand03]
3 106.028137 -11.221827 -5.996406 -176.510086 15.433296 -74.380737 106.788818
4 106.028137 -11.221827 -5.996406 -175.861618 15.275426 -71.940247 106.788818
[spine02]
3 129.756927 0.001550 0.000119 0.360061 -4.044797 -12.915058 129.756927
4 129.756927 0.001550 0.000119 0.360061 -4.044797 -12.915058 129.756927
[spine03]
3 78.614067 0.081516 -4.899011 1.896495 3.831288 16.473045 78.766602
4 78.614059 0.081533 -4.899012 1.896495 3.831288 16.473045 78.766594
[pelvis]
3 169.435242 0.051022 0.000000 -0.060465 -0.180225 14.087930 169.435257
4 169.435242 0.051022 0.000000 -0.060465 -0.180225 14.087930 169.435257
[null_rope03_connect]
3 -1.257226 -2.466202 137.391083 0.000000 -89.897209 61.950710 137.418976
4 -1.257226 -2.466202 137.391083 0.000000 -89.488716 62.026779 137.418976
[null_rope04_connect]
3 -1.259640 -2.480268 -137.844437 0.000000 -89.897209 61.950710 137.872513
4 -1.259640 -2.480268 -137.844437 0.000000 -89.488716 62.026779 137.872513
[Rope3_Seg01]
3 -0.000010 0.000000 -0.000034 -139.912018 31.607367 -92.071754 0.000035
4 -0.000010 0.000000 -0.000051 -144.650970 39.774860 -94.702484 0.000052
[Rope3_Seg02]
3 139.999924 -0.000119 0.000060 0.688357 -4.752867 -8.990647 139.999924
4 139.999924 -0.000119 0.000060 0.984251 -5.863110 -11.184268 139.999924
[Rope3_Seg03]
3 139.999924 -0.000119 0.000119 0.721803 -5.933494 -11.171443 139.999924
4 139.999924 -0.000119 0.000119 1.174695 -8.547513 -14.482373 139.999924
[Rope3_Seg04]
3 139.999924 0.000119 0.000000 0.342151 -5.526383 -10.322839 139.999924
4 139.999924 0.000119 0.000000 0.412931 -6.437682 -11.787033 139.999924
[Rope3_Seg05]
3 139.999924 -0.000238 0.000060 0.387289 2.677410 5.266338 139.999924
4 139.999924 -0.000238 0.000060 -0.393129 6.654976 4.805482 139.999924
[Rope3_Seg06]
3 139.999893 -0.000119 -0.000060 0.602937 2.845004 5.460687 139.999893
4 139.999893 -0.000119 -0.000060 0.284980 4.511452 3.671207 139.999893
[Rope3_Seg07]
3 139.999771 0.000060 -0.000119 0.528848 1.031360 1.965104 139.999771
4 139.999771 0.000060 -0.000119 0.432644 1.995516 1.171634 139.999771
[Rope3_Seg08]
3 139.999985 -0.000060 0.000000 0.538079 0.663546 1.241255 139.999985
4 139.999985 -0.000060 0.000000 0.504200 1.254739 0.724355 139.999985
[Rope3_Seg09]
3 90.185997 -0.000179 -0.000060 89.793228 -1.359877 -0.847183 90.185997
4 90.185997 -0.000179 -0.000060 89.793228 -1.359877 -0.847183 90.185997
[R_rear_hand01]
3 103.366196 -6.073594 -10.757982 -176.465668 24.425859 -70.909309 104.101845
4 103.366196 -6.073594 -10.757982 -175.114853 24.208797 -67.632149 104.101845
[R_rear_hand02]
3 100.509819 12.039542 -7.992327 -14.843726 36.213379 68.859123 101.543350
4 100.509819 12.039542 -7.992327 -16.923939 35.395069 65.303368 101.543350
[R_rear_hand03]
3 101.539970 5.215704 5.435467 73.787918 -69.202950 19.069901 101.819031
4 101.539970 5.215704 5.435467 75.730560 -66.314209 16.974052 101.819031
[Rope4_Seg01]
3 0.000010 0.000038 -0.000114 67.310242 34.530975 -72.577095 0.000121
4 0.000010 0.000038 -0.000114 78.202347 33.449398 -54.924313 0.000121
[Rope4_Seg02]
3 139.999985 0.000060 0.000119 -0.027298 -9.063662 -3.578742 139.999985
4 139.999985 0.000060 0.000119 2.329865 -12.435781 -8.035629 139.999985
[Rope4_Seg03]
3 139.999924 0.000000 -0.000238 0.297968 -11.877309 -4.759412 139.999924
4 139.999924 0.000000 -0.000238 3.026984 -19.022184 -12.173622 139.999924
[Rope4_Seg04]
3 139.999985 0.000000 0.000119 1.130597 -17.765366 -7.022240 139.999985
4 139.999985 0.000000 0.000119 3.419759 -24.052944 -16.744810 139.999985
[Rope4_Seg05]
3 139.999802 -0.000060 -0.000119 0.132814 -4.567582 -2.419230 139.999802
4 139.999802 -0.000060 -0.000119 0.649857 -6.382771 -1.674223 139.999802
[Rope4_Seg06]
3 139.999924 0.000000 0.000060 -0.072649 5.231985 1.082593 139.999924
4 139.999924 0.000000 0.000060 2.342706 5.063716 8.143288 139.999924
[Rope4_Seg07]
3 139.999802 0.000000 0.000000 0.064572 0.852432 -0.185805 139.999802
4 139.999802 0.000000 0.000000 1.081324 1.636839 4.539318 139.999802
[Rope4_Seg08]
3 139.999924 0.000000 0.000119 -1.492617 0.394982 -0.181544 139.999924
4 139.999924 0.000000 0.000119 -0.972206 0.459448 2.644063 139.999924
[Rope4_Seg09]
3 90.185791 0.000060 0.000060 -135.617828 2.228885 0.850567 90.185791
4 90.185791 0.000060 0.000060 -135.617828 2.228885 0.850567 90.185791
[L_rear_hand01]
3 101.696655 -8.392275 -7.654577 -18.919888 -34.466518 118.185951 102.329041
4 101.696655 -8.392275 -7.654577 -23.837845 -31.499460 127.199913 102.329041
[L_rear_hand02]
3 102.726799 -1.568258 5.773216 77.226944 63.386848 164.679077 102.900848
4 102.726799 -1.568258 5.773216 79.944244 55.427822 167.828537 102.900848
[L_rear_hand03]
3 104.552910 9.721220 -10.420293 -173.780411 -23.916803 -115.646591 105.519653
4 104.552910 9.721220 -10.420293 -170.300720 -22.790039 -124.406273 105.519653
